<svg width="137" height="102" viewBox="0 0 137 102" fill="none" xmlns="http://www.w3.org/2000/svg">
<g clip-path="url(#clip0_1062_629)">
<path d="M135.539 23.0385H136.041V22.5362H135.539V23.0385ZM122.477 23.0385V22.5362H121.975V23.0385H122.477ZM135.539 73.2687V73.771H136.041V73.2687H135.539ZM84.8008 73.2687H84.2984V73.771H84.8008V73.2687ZM84.8008 60.2088V59.7065H84.2984V60.2088H84.8008ZM112.739 60.2088V60.7111H113.952L113.094 59.8536L112.739 60.2088ZM84.8008 32.2732L84.4456 31.918L84.0903 32.2732L84.4456 32.6283L84.8008 32.2732ZM94.0364 23.0385L94.3916 22.6834L94.0364 22.3281L93.6812 22.6834L94.0364 23.0385ZM122.477 51.4764L122.122 51.8316L122.98 52.6891V51.4764H122.477ZM135.539 22.5362H122.477V23.5408H135.539V22.5362ZM136.041 73.2687V23.0385H135.036V73.2687H136.041ZM84.8008 73.771H135.539V72.7664H84.8008V73.771ZM84.2984 60.2088V73.2687H85.3031V60.2088H84.2984ZM112.739 59.7065H84.8008V60.7111H112.739V59.7065ZM110.731 58.9118L112.384 60.564L113.094 59.8536L111.442 58.2014L110.731 58.9118ZM84.4456 32.6283L110.731 58.9118L111.442 58.2014L85.156 31.918L84.4456 32.6283ZM93.6812 22.6834L84.4456 31.918L85.156 32.6283L94.3916 23.3937L93.6812 22.6834ZM122.832 51.1213L94.3916 22.6834L93.6812 23.3937L122.122 51.8316L122.832 51.1213ZM121.975 23.0385V51.4764H122.98V23.0385H121.975Z" fill="#0A0A0B"/>
<path d="M52.1483 23.0385H52.6506V22.5362H52.1483V23.0385ZM39.0871 23.0385V22.5362H38.5847V23.0385H39.0871ZM52.1483 73.2687V73.771H52.6506V73.2687H52.1483ZM1.41063 73.2687H0.90828V73.771H1.41063V73.2687ZM1.41063 60.2088V59.7065H0.908276V60.2088H1.41063ZM29.3491 60.2088V60.7111H30.5619L29.7043 59.8537L29.3491 60.2088ZM1.41063 32.2732L1.05541 31.918L0.700195 32.2732L1.05541 32.6283L1.41063 32.2732ZM10.6463 23.0385L11.0014 22.6834L10.6463 22.3281L10.291 22.6834L10.6463 23.0385ZM39.0871 51.4764L38.7319 51.8316L39.5894 52.6891V51.4764H39.0871ZM52.1483 22.5362H39.0871V23.5408H52.1483V22.5362ZM52.6506 73.2687V23.0385H51.6459V73.2687H52.6506ZM1.41063 73.771H52.1483V72.7664H1.41063V73.771ZM0.908276 60.2088L0.90828 73.2687H1.91299V60.2088H0.908276ZM29.3491 59.7065H1.41063V60.7111H29.3491V59.7065ZM27.3415 58.9118L28.9939 60.564L29.7043 59.8537L28.0519 58.2014L27.3415 58.9118ZM1.05541 32.6283L27.3415 58.9118L28.0519 58.2014L1.76585 31.918L1.05541 32.6283ZM10.291 22.6834L1.05541 31.918L1.76585 32.6283L11.0014 23.3937L10.291 22.6834ZM39.4424 51.1213L11.0014 22.6834L10.291 23.3937L38.7319 51.8316L39.4424 51.1213ZM38.5847 23.0385V51.4764H39.5894V23.0385H38.5847Z" fill="#0A0A0B"/>
</g>
<defs>
<clipPath id="clip0_1062_629">
<rect width="136.64" height="101.02" fill="white"/>
</clipPath>
</defs>
</svg>
