<svg width="30" height="30" viewBox="0 0 30 30" fill="none" xmlns="http://www.w3.org/2000/svg">
<path d="M12.2703 17.7303C12.7358 18.1958 12.7358 18.9482 12.2703 19.4137L4.77864 26.9053H10.2382C10.8965 26.9053 11.4286 27.4387 11.4286 28.0958C11.4286 28.7529 10.8965 29.2863 10.2382 29.2863H4.28578C2.31674 29.2863 0.714355 27.6839 0.714355 25.7148V19.7625C0.714355 19.1053 1.2465 18.572 1.90483 18.572C2.56316 18.572 3.09531 19.1053 3.09531 19.7625V25.222L10.587 17.7303C11.0525 17.2648 11.8048 17.2648 12.2703 17.7303ZM25.7144 0.714844H19.762C19.1036 0.714844 18.5715 1.24818 18.5715 1.90532C18.5715 2.56246 19.1036 3.0958 19.762 3.0958H25.2215L17.7298 10.5875C17.2644 11.0529 17.2644 11.8053 17.7298 12.2708C17.962 12.5029 18.2667 12.6196 18.5715 12.6196C18.8763 12.6196 19.181 12.5029 19.4132 12.2708L26.9048 4.77913V10.2387C26.9048 10.8958 27.437 11.4291 28.0953 11.4291C28.7536 11.4291 29.2858 10.8958 29.2858 10.2387V4.28627C29.2858 2.31722 27.6834 0.714844 25.7144 0.714844Z" fill="#FDFDFD"/>
</svg>
