<svg width="18" height="16" viewBox="0 0 18 16" fill="none" xmlns="http://www.w3.org/2000/svg">
<path d="M5.66025 15.3144C12.453 15.3144 16.1677 9.68714 16.1677 4.80689C16.1677 4.64714 16.1677 4.48814 16.1572 4.32989C16.8802 3.80688 17.5042 3.15926 18 2.41739C17.3261 2.71638 16.6111 2.91256 15.879 2.99939C16.6497 2.53761 17.2265 1.81159 17.502 0.956385C16.7772 1.38647 15.9843 1.68958 15.1575 1.85264C14.6007 1.26054 13.8642 0.868473 13.0621 0.737093C12.26 0.605714 11.4369 0.74235 10.7203 1.12586C10.0037 1.50937 9.4334 2.11837 9.09775 2.85862C8.7621 3.59888 8.67977 4.42912 8.8635 5.22089C7.3953 5.1473 5.95899 4.7658 4.64778 4.10115C3.33658 3.43651 2.17979 2.50357 1.2525 1.36289C0.780368 2.17593 0.635835 3.13835 0.848324 4.05421C1.06081 4.97008 1.61435 5.77053 2.39625 6.29264C1.80847 6.27509 1.23354 6.11637 0.72 5.82989V5.87714C0.720233 6.72974 1.01535 7.55602 1.5553 8.21585C2.09525 8.87569 2.8468 9.32846 3.6825 9.49739C3.13886 9.64548 2.56851 9.66703 2.01525 9.56039C2.2512 10.2942 2.71058 10.9359 3.32916 11.3958C3.94774 11.8557 4.69458 12.1108 5.46525 12.1254C4.6995 12.727 3.82268 13.1718 2.88491 13.4344C1.94714 13.6969 0.966818 13.772 0 13.6554C1.68866 14.7394 3.6536 15.3145 5.66025 15.3121" fill="white"/>
</svg>
