<svg width="72" height="72" viewBox="0 0 72 72" fill="none" xmlns="http://www.w3.org/2000/svg">
<g clip-path="url(#clip0_1130_2270)">
<mask id="mask0_1130_2270" style="mask-type:luminance" maskUnits="userSpaceOnUse" x="0" y="0" width="72" height="72">
<path d="M0.00292969 0.0123978H71.3362V71.3457H0.00292969V0.0123978Z" fill="white"/>
</mask>
<g mask="url(#mask0_1130_2270)">
<path d="M65.2904 6.03381L62.8496 8.47461" stroke="#020202" stroke-width="2.78646" stroke-miterlimit="10" stroke-linecap="round" stroke-linejoin="round"/>
<path d="M42.8291 6.03381L45.2699 8.47461" stroke="#020202" stroke-width="2.78646" stroke-miterlimit="10" stroke-linecap="round" stroke-linejoin="round"/>
<path d="M47.2017 17.2649C47.2017 21.0525 50.2722 24.123 54.0598 24.123C57.8475 24.123 60.918 21.0525 60.918 17.2649C60.918 13.4772 57.8475 10.4067 54.0598 10.4067C50.2722 10.4067 47.2017 13.4772 47.2017 17.2649Z" stroke="#020202" stroke-width="2.78646" stroke-miterlimit="10" stroke-linecap="round" stroke-linejoin="round"/>
<path d="M65.2904 28.498L62.8496 26.0572" stroke="#020202" stroke-width="2.78646" stroke-miterlimit="10" stroke-linecap="round" stroke-linejoin="round"/>
<path d="M42.8291 28.498L45.2699 26.0572" stroke="#020202" stroke-width="2.78646" stroke-miterlimit="10" stroke-linecap="round" stroke-linejoin="round"/>
<path d="M69.941 17.2676H66.4893" stroke="#020202" stroke-width="2.78646" stroke-miterlimit="10" stroke-linecap="round" stroke-linejoin="round"/>
<path d="M54.0586 1.38421V4.83594" stroke="#020202" stroke-width="2.78646" stroke-miterlimit="10" stroke-linecap="round" stroke-linejoin="round"/>
<path d="M54.0586 33.1504V29.6987" stroke="#020202" stroke-width="2.78646" stroke-miterlimit="10" stroke-linecap="round" stroke-linejoin="round"/>
<path d="M38.1758 17.2676H41.6275" stroke="#020202" stroke-width="2.78646" stroke-miterlimit="10" stroke-linecap="round" stroke-linejoin="round"/>
<path d="M16.5093 42.2793V27.1628" stroke="#020202" stroke-width="2.78646" stroke-miterlimit="10" stroke-linecap="round" stroke-linejoin="round"/>
<path d="M22.0822 27.1595V69.9316H16.5093V54.8151" stroke="#020202" stroke-width="2.78646" stroke-miterlimit="10" stroke-linecap="round" stroke-linejoin="round"/>
<path d="M19.2952 25.4453C21.1735 25.4453 22.6963 23.9225 22.6963 22.0442C22.6963 20.1658 21.1735 18.643 19.2952 18.643C17.4168 18.643 15.894 20.1658 15.894 22.0442C15.894 23.9225 17.4168 25.4453 19.2952 25.4453Z" stroke="#020202" stroke-width="2.78646" stroke-miterlimit="10" stroke-linecap="round" stroke-linejoin="round"/>
<path d="M22.2225 20.2383V8.39556C22.2225 5.76612 21.177 3.24465 19.3164 1.38678L19.3108 1.38121C17.4297 3.24173 16.3711 5.77754 16.3711 8.42314V20.2383" stroke="#020202" stroke-width="2.78646" stroke-miterlimit="10" stroke-linecap="round" stroke-linejoin="round"/>
<path d="M16.2693 20.4149L6.01322 26.3362C3.73613 27.6509 2.07526 29.8171 1.39662 32.3575L1.39453 32.365C3.94637 33.0638 6.67166 32.7127 8.96283 31.3899L19.195 25.4823" stroke="#020202" stroke-width="2.78646" stroke-miterlimit="10" stroke-linecap="round" stroke-linejoin="round"/>
<path d="M22.3627 20.4149L32.6188 26.3362C34.8959 27.6509 36.5567 29.8171 37.2354 32.3575L37.2375 32.365C34.6856 33.0638 31.9603 32.7127 29.6692 31.3899L19.437 25.4823" stroke="#020202" stroke-width="2.78646" stroke-miterlimit="10" stroke-linecap="round" stroke-linejoin="round"/>
<path d="M1.39453 69.9316H69.9414" stroke="#020202" stroke-width="2.78646" stroke-miterlimit="10" stroke-linecap="round" stroke-linejoin="round"/>
<path d="M49.3587 63.2422H41.5566V69.9297H49.3587V63.2422Z" stroke="#020202" stroke-width="2.78646" stroke-miterlimit="10" stroke-linecap="round" stroke-linejoin="round"/>
<path d="M45.4624 39.8379V63.2441" stroke="#020202" stroke-width="2.78646" stroke-miterlimit="10" stroke-linecap="round" stroke-linejoin="round"/>
<path d="M57.4691 63.2441L54.293 39.8379" stroke="#020202" stroke-width="2.78646" stroke-miterlimit="10" stroke-linecap="round" stroke-linejoin="round"/>
<path d="M33.4565 63.2441L36.6327 39.8379" stroke="#020202" stroke-width="2.78646" stroke-miterlimit="10" stroke-linecap="round" stroke-linejoin="round"/>
<path d="M64.7731 47.6367H26.1528" stroke="#020202" stroke-width="2.78646" stroke-miterlimit="10" stroke-linecap="round" stroke-linejoin="round"/>
<path d="M67.0405 55.4434H23.8853" stroke="#020202" stroke-width="2.78646" stroke-miterlimit="10" stroke-linecap="round" stroke-linejoin="round"/>
<path d="M61.6224 39.8379H29.3277C28.4472 39.8379 27.6759 40.4278 27.4453 41.2775L22.1517 60.7827C21.8151 62.023 22.749 63.2441 24.0341 63.2441H66.916C68.2011 63.2441 69.135 62.023 68.7984 60.7827L63.5048 41.2775C63.2742 40.4278 62.503 39.8379 61.6224 39.8379Z" stroke="#020202" stroke-width="2.78646" stroke-miterlimit="10" stroke-linecap="round" stroke-linejoin="round"/>
</g>
</g>
<defs>
<clipPath id="clip0_1130_2270">
<rect width="71.3333" height="71.3333" fill="white" transform="translate(-0.000488281)"/>
</clipPath>
</defs>
</svg>
