<svg width="72" height="48" viewBox="0 0 72 48" fill="none" xmlns="http://www.w3.org/2000/svg">
<path d="M69.25 45.375V18.0625C69.2447 13.3399 67.3664 8.81232 64.027 5.47296C60.6877 2.13361 56.1601 0.255254 51.4375 0.25H20.5625C15.8399 0.255254 11.3123 2.13361 7.97296 5.47296C4.63361 8.81232 2.75525 13.3399 2.75 18.0625V45.375H0.375V47.75H71.625V45.375H69.25ZM64.5 34.6875H63.3125V33.5C63.3132 32.8703 63.5637 32.2667 64.0089 31.8214C64.4542 31.3762 65.0578 31.1257 65.6875 31.125H66.875V32.3125C66.8743 32.9422 66.6238 33.5458 66.1786 33.9911C65.7333 34.4363 65.1297 34.6868 64.5 34.6875ZM12.25 34.6875H11.0625V33.5C11.0632 32.8703 11.3137 32.2667 11.7589 31.8214C12.2042 31.3762 12.8078 31.1257 13.4375 31.125H14.625V32.3125C14.6243 32.9422 14.3738 33.5458 13.9286 33.9911C13.4833 34.4363 12.8797 34.6868 12.25 34.6875ZM14.625 22.8125V28.75H13.4375C12.7631 28.7499 12.0964 28.8938 11.4821 29.172C10.8677 29.4502 10.3198 29.8563 9.875 30.3632C9.43018 29.8563 8.88228 29.4502 8.26793 29.172C7.65357 28.8938 6.98691 28.7499 6.3125 28.75H5.125V19.25H36V28.75H34.8125C34.1381 28.7499 33.4714 28.8938 32.8571 29.172C32.2427 29.4502 31.6948 29.8563 31.25 30.3632C30.8052 29.8563 30.2573 29.4502 29.6429 29.172C29.0286 28.8938 28.3619 28.7499 27.6875 28.75H26.5V22.8125C26.5 22.6565 26.4694 22.5021 26.4097 22.358C26.35 22.2139 26.2626 22.083 26.1523 21.9727C26.042 21.8624 25.9111 21.775 25.767 21.7153C25.6229 21.6556 25.4685 21.625 25.3125 21.625H15.8125C15.6565 21.625 15.5021 21.6556 15.358 21.7153C15.2139 21.775 15.083 21.8624 14.9727 21.9727C14.8624 22.083 14.775 22.2139 14.7153 22.358C14.6556 22.5021 14.625 22.6565 14.625 22.8125ZM28.875 5.05791C30.8885 6.34605 32.5759 8.08362 33.8045 10.1341C35.0331 12.1845 35.7693 14.4919 35.9555 16.875H28.875V5.05791ZM26.5 32.3125V31.125H27.6875C28.3172 31.1257 28.9208 31.3762 29.3661 31.8214C29.8113 32.2667 30.0618 32.8703 30.0625 33.5V34.6875H28.875C28.2453 34.6868 27.6417 34.4363 27.1964 33.9911C26.7512 33.5458 26.5007 32.9422 26.5 32.3125ZM32.4375 33.5C32.4382 32.8703 32.6887 32.2667 33.1339 31.8214C33.5792 31.3762 34.1828 31.1257 34.8125 31.125H36V32.3125C35.9993 32.9422 35.7488 33.5458 35.3036 33.9911C34.8583 34.4363 34.2547 34.6868 33.625 34.6875H32.4375V33.5ZM38.375 19.25H51.4375V28.75H50.25C49.5756 28.7499 48.9089 28.8938 48.2946 29.172C47.6802 29.4502 47.1323 29.8563 46.6875 30.3632C46.2427 29.8563 45.6948 29.4502 45.0804 29.172C44.4661 28.8938 43.7994 28.7499 43.125 28.75H40.75C40.4351 28.75 40.133 28.8751 39.9103 29.0978C39.6876 29.3205 39.5625 29.6226 39.5625 29.9375V32.3125C39.5619 33.1467 39.7824 33.9662 40.2015 34.6875H38.375V19.25ZM41.9375 32.3125V31.125H43.125C43.7547 31.1257 44.3583 31.3762 44.8036 31.8214C45.2488 32.2667 45.4993 32.8703 45.5 33.5V34.6875H44.3125C43.6828 34.6868 43.0792 34.4363 42.6339 33.9911C42.1887 33.5458 41.9382 32.9422 41.9375 32.3125ZM47.875 33.5C47.8757 32.8703 48.1262 32.2667 48.5714 31.8214C49.0167 31.3762 49.6203 31.1257 50.25 31.125H51.4375V32.3125C51.4368 32.9422 51.1863 33.5458 50.7411 33.9911C50.2958 34.4363 49.6922 34.6868 49.0625 34.6875H47.875V33.5ZM53.8125 19.25H66.875V28.75H65.6875C65.0131 28.7499 64.3464 28.8938 63.7321 29.172C63.1177 29.4502 62.5698 29.8563 62.125 30.3632C61.6802 29.8563 61.1323 29.4502 60.5179 29.172C59.9036 28.8938 59.2369 28.7499 58.5625 28.75H56.1875C55.8726 28.75 55.5705 28.8751 55.3478 29.0978C55.1251 29.3205 55 29.6226 55 29.9375V32.3125C54.9994 33.1467 55.2199 33.9662 55.639 34.6875H53.8125V19.25ZM57.375 32.3125V31.125H58.5625C59.1922 31.1257 59.7958 31.3762 60.2411 31.8214C60.6863 32.2667 60.9368 32.8703 60.9375 33.5V34.6875H59.75C59.1203 34.6868 58.5167 34.4363 58.0714 33.9911C57.6262 33.5458 57.3757 32.9422 57.375 32.3125ZM51.4375 2.625C55.3251 2.62937 59.0683 4.09842 61.9211 6.73939C64.7739 9.38036 66.5268 12.9993 66.8305 16.875H53.7724C53.5748 13.9518 52.6598 11.1224 51.1085 8.63695C49.5572 6.1515 47.4173 4.08665 44.8781 2.625H51.4375ZM36 2.625C39.8876 2.62937 43.6308 4.09842 46.4836 6.73939C49.3364 9.38036 51.0893 12.9993 51.393 16.875H38.3349C38.1373 13.9518 37.2223 11.1224 35.671 8.63695C34.1197 6.1515 31.9798 4.08665 29.4406 2.625H36ZM20.5625 2.625C22.6009 2.62291 24.6192 3.02658 26.5 3.8125V16.875H14.625V3.8125C16.5058 3.02658 18.5241 2.62291 20.5625 2.625ZM12.25 5.05791V16.875H5.16954C5.35567 14.4919 6.09196 12.1845 7.32052 10.1341C8.54908 8.08362 10.2365 6.34605 12.25 5.05791ZM5.125 31.125H6.3125C6.94217 31.1257 7.54584 31.3762 7.99108 31.8214C8.43633 32.2667 8.68678 32.8703 8.6875 33.5V34.6875H7.5C6.87033 34.6868 6.26666 34.4363 5.82142 33.9911C5.37617 33.5458 5.12572 32.9422 5.125 32.3125V31.125ZM5.125 45.375V37.0625H14.625V45.375H5.125ZM17 45.375V24H24.125V45.375H17ZM26.5 37.0625H36V45.375H26.5V37.0625ZM38.375 37.0625H51.4375V45.375H38.375V37.0625ZM53.8125 37.0625H66.875V45.375H53.8125V37.0625Z" fill="#FDFDFD"/>
</svg>
