<svg width="75" height="76" viewBox="0 0 75 76" fill="none" xmlns="http://www.w3.org/2000/svg">
<path d="M46.766 52.0016C47.0927 52.0832 47.3569 52.3568 47.4254 52.6866C47.4494 52.801 48.0022 55.5252 47.0906 58.754C46.2466 61.7435 43.9485 65.7363 37.7972 67.7982C36.6289 67.94 35.2347 67.8416 32.7359 67.1093C29.3697 65.9942 27.1226 63.7689 26.2348 60.6738C26.2334 60.6696 26.2321 60.6656 26.2309 60.6614C26.2298 60.6579 26.2286 60.6546 26.2276 60.651C24.4112 54.2605 27.3161 49.2097 27.4405 48.998C27.4435 48.993 27.4471 48.9887 27.4501 48.9838C27.4604 48.9671 27.4714 48.9508 27.4828 48.9348C27.6423 48.7059 27.8919 48.5528 28.1729 48.5433C28.4721 48.535 28.7551 48.6645 28.9284 48.9133C29.0127 49.0129 30.1195 50.2618 34.0411 52.2077C34.5728 52.4716 35.0689 52.7516 35.5331 53.0456C40.2552 50.4206 46.4936 51.9335 46.7661 52.0017L46.766 52.0016ZM39.5915 57.5818C39.6355 57.5508 39.6789 57.5205 39.7234 57.4886V53.5042C38.8536 53.6484 37.9767 53.8841 37.146 54.246C38.2672 55.2322 39.0849 56.3467 39.5915 57.5817V57.5818ZM41.5144 53.3214V56.1095C42.6543 55.183 43.7742 54.1961 44.6019 53.448C43.7622 53.3472 42.6839 53.2706 41.5144 53.3214ZM45.3477 58.3358C45.7386 56.9832 45.8296 55.7182 45.8186 54.7646C44.3565 56.0882 41.9845 58.1536 40.0977 59.4067C40.3743 61.1859 40.0908 63.1515 39.2503 65.2811C42.4069 63.7536 44.4547 61.425 45.3477 58.3358ZM33.2506 65.3931C34.0239 65.6531 34.7743 65.8129 35.4222 65.9114C34.5807 64.8597 33.82 63.7988 33.1332 62.7499C32.3354 62.6915 30.6537 62.506 28.6947 61.9239C29.6314 63.5258 31.1567 64.6892 33.2506 65.3931ZM28.0613 52.1952C27.5198 53.9947 27.0779 56.6984 27.8389 59.7416C29.3751 60.3344 30.8524 60.6467 31.9347 60.8095C29.9506 57.401 28.7391 54.2711 28.0614 52.1952H28.0613ZM33.245 53.812C31.7973 53.0936 30.6994 52.4577 29.8694 51.9194C30.9224 55.0316 33.1585 60.3922 37.2772 65.3513C38.4216 62.8184 38.7036 60.5949 38.1087 58.7303C37.6356 57.2474 36.5946 55.9449 35.0057 54.8422C35.0028 54.8403 34.9998 54.8385 34.997 54.8364C34.4722 54.473 33.8884 54.1311 33.245 53.8118V53.812Z" fill="#FDFDFD"/>
<path d="M8.14357 18.0444C7.91448 18.0444 7.68523 17.9569 7.51046 17.7821L6.45229 16.724C6.10245 16.3743 6.10245 15.8073 6.45229 15.4576C6.80183 15.1079 7.36912 15.1079 7.71851 15.4576L8.77668 16.5158C9.12652 16.8654 9.12652 17.4324 8.77668 17.7821C8.60191 17.9569 8.37267 18.0444 8.14357 18.0444Z" fill="#FDFDFD"/>
<path d="M11.2276 16.7678C10.7331 16.7678 10.3321 16.3668 10.3321 15.8723V14.376C10.3321 13.8815 10.7331 13.4805 11.2276 13.4805C11.722 13.4805 12.123 13.8815 12.123 14.376V15.8723C12.123 16.3668 11.722 16.7678 11.2276 16.7678Z" fill="#FDFDFD"/>
<path d="M7.68555 20.3096C7.68555 20.804 7.28452 21.205 6.79006 21.205H5.29369C4.79923 21.205 4.3982 20.804 4.3982 20.3096C4.3982 19.8151 4.79923 19.4141 5.29369 19.4141H6.79006C7.28452 19.4141 7.68555 19.8151 7.68555 20.3096Z" fill="#FDFDFD"/>
<path d="M11.4248 21.0918C10.9303 21.0918 10.5293 20.6908 10.5293 20.1963C10.5293 19.7017 10.9303 19.3008 11.4248 19.3008C11.9194 19.3008 12.3203 19.7017 12.3203 20.1963C12.3203 20.6908 11.9194 21.0918 11.4248 21.0918Z" fill="#FDFDFD"/>
<path d="M0.214615 44.9441L7.59003 31.1933C7.74599 30.9025 8.04913 30.721 8.37911 30.721H8.97954C8.05972 27.8837 8.01673 25.2399 8.85745 22.858C9.02222 22.3918 9.53339 22.147 9.99995 22.3116C10.4664 22.4762 10.711 22.9877 10.5463 23.4541C9.79429 25.5787 9.88338 28.1474 10.8905 30.721H40.6222C42.4415 26.3707 41.3886 22.0157 38.1427 19.5362C35.5416 17.5237 31.9026 17.0037 29.8584 18.3531C29.2745 18.7386 28.6845 19.098 28.0969 19.4262C28.0957 19.4269 28.0947 19.4277 28.0935 19.4284C24.1504 21.6285 21.6366 21.6539 21.5315 21.6539C21.0393 21.6539 20.6423 21.2566 20.6391 20.7644C20.6358 20.2721 21.0336 19.8695 21.5257 19.8629C21.5388 19.8628 22.3603 19.8428 23.7923 19.384C22.9414 19.0789 22.1925 18.6806 21.6969 18.3533C19.9557 17.204 17.0064 17.3861 14.525 18.7958C14.0949 19.0402 13.5483 18.8894 13.304 18.4595C13.0597 18.0297 13.2103 17.483 13.6403 17.2387C15.3163 16.2866 17.1513 15.8068 18.8499 15.8096C18.0316 14.7125 17.4027 13.3848 17.0375 11.9812C16.5108 9.98802 16.437 7.76705 16.8263 5.53056C16.8882 5.09222 17.2958 4.75924 17.736 4.76924C18.0501 4.77775 25.4524 5.03953 27.254 10.4444C28.341 13.7054 27.769 16.3375 27.1579 17.8943C27.7322 17.5901 28.2978 17.2324 28.8718 16.8584C30.6431 15.6893 33.1829 15.5266 35.6312 16.265C36.2477 15.5511 37.1875 14.9398 38.5293 14.3756C38.6909 14.3077 38.8481 14.2449 39.0031 14.1846C38.7045 13.8686 38.4626 13.5376 38.2779 13.2464C37.4178 13.5713 36.6886 13.496 36.1819 13.3448C34.9203 12.9688 34.0751 11.8877 33.6293 11.156C32.961 11.282 31.969 11.3319 31.0388 10.852C30.0424 10.3383 29.3727 9.37715 29.0482 7.9954C28.6526 6.31009 29.3291 4.73328 30.8582 3.77734C32.736 2.60335 36.0289 2.41306 38.4321 4.37254C39.2345 5.0267 39.9647 5.8795 40.6144 6.805C40.935 5.41743 41.3662 4.2512 41.9051 3.32467C43.4645 0.644163 46.6135 -0.337594 48.7843 0.100301C50.5521 0.456408 51.7408 1.69398 51.9639 3.41063C52.1469 4.81805 51.8585 5.95353 51.1069 6.78529C50.405 7.56213 49.4592 7.86481 48.7895 7.98227C48.63 8.82388 48.2198 10.1334 47.1714 10.9296C46.7512 11.2495 46.0911 11.5775 45.1747 11.5759C45.0934 11.9672 44.959 12.4354 44.7413 12.9011C45.1213 12.8746 45.5629 12.8557 45.9675 12.8557C47.7922 12.8557 49.0037 13.2196 49.8316 13.8628C50.2696 13.3037 50.7966 13.0055 51.2639 12.8684C51.6872 11.6287 52.8674 9.96683 55.3372 9.74489C56.0694 9.67982 56.7265 9.89758 57.2406 10.3764C57.6925 10.7972 57.9762 11.3733 58.1547 11.9454C58.7617 11.3536 59.4388 10.8587 60.1875 10.5356C61.6485 9.90504 63.1751 9.98504 64.7246 10.7728C66.3322 11.5899 67.3205 12.8021 67.6626 14.3755C68.3821 17.6869 65.8941 21.614 64.8781 23.0426C65.3374 23.7738 65.9643 25.1068 65.7558 26.7088C65.5631 28.1898 64.7182 29.5359 63.2429 30.721H65.6439C65.9738 30.721 66.277 30.9025 66.4329 31.1933L73.8086 44.9443C74.1091 45.5046 74.0936 46.1648 73.767 46.7103C73.4405 47.256 72.8661 47.5816 72.2303 47.5816H66.5393V73.4063C66.5393 74.3939 65.7359 75.1973 64.7484 75.1973H9.2746C8.28703 75.1973 7.48362 74.3939 7.48362 73.4063V47.5816H1.79277C1.15697 47.5816 0.582664 47.256 0.256111 46.7103C-0.0704498 46.1648 -0.085968 45.5046 0.214615 44.9441ZM22.6834 16.8584C23.1596 17.1727 23.728 17.4545 24.3096 17.6676C24.0078 16.8021 23.545 15.6148 22.888 14.2712L19.3538 13.1809C20.0853 14.732 21.1903 16.0554 22.6834 16.8584ZM18.6482 11.0889L21.6697 12.0209C21.3973 11.5648 21.1055 11.1028 20.7908 10.6389C20.0469 9.54236 19.2411 8.52867 18.3864 7.60571C18.3167 8.83448 18.4064 10.0049 18.6482 11.0889ZM25.5548 11.0107C24.7291 8.53344 22.1755 7.43139 20.1989 6.9432C20.9299 7.77974 21.6242 8.67732 22.2728 9.63341C24.0183 12.2062 25.1264 14.7023 25.7696 16.4236C26.127 15.1283 26.3051 13.2613 25.5549 11.0107H25.5548ZM37.9136 41.2296C39.1337 41.2969 40.3204 41.4916 41.4595 41.8036L37.9136 35.1927V41.2296ZM36.1226 35.1682L32.5769 41.7789C33.7164 41.4735 34.903 41.2856 36.1226 41.2249V35.1682ZM40.3286 9.75445C40.3113 9.72639 40.2958 9.69713 40.2816 9.66728C39.4734 8.1942 38.46 6.70574 37.3007 5.7604C35.6064 4.37911 33.1777 4.4394 31.8077 5.29564C31.1897 5.68205 30.5118 6.39292 30.7918 7.58571C30.99 8.42942 31.3464 8.99119 31.8511 9.25551C32.6781 9.68863 33.7397 9.27924 33.7453 9.27715C34.194 9.09387 34.7082 9.30342 34.9043 9.74669C35.0957 10.1798 35.7909 11.3622 36.6978 11.6293C37.1459 11.7614 37.6235 11.6548 38.1579 11.3035C38.379 11.158 38.6533 11.1193 38.9073 11.1951C39.1607 11.271 39.3683 11.4565 39.4733 11.6995C39.6452 12.0978 40.24 13.1318 41.0474 13.5163C41.4844 13.4013 41.8042 13.3354 41.9624 13.3055C41.6226 12.4314 41.0628 11.105 40.3288 9.75415L40.3286 9.75445ZM46.0844 9.5058C46.8391 8.93627 47.0733 7.58482 47.0999 7.11484C47.1239 6.62843 47.5381 6.25337 48.0192 6.26442C48.0298 6.26412 49.1623 6.26546 49.778 5.58414C50.1621 5.15893 50.3001 4.50522 50.1877 3.64107C50.0298 2.42604 49.145 1.99949 48.4306 1.85561C46.847 1.53637 44.5525 2.3356 43.4533 4.22494C42.7834 5.37624 42.3008 7.01917 42.0166 9.1088C42.5229 10.0573 42.9433 10.9783 43.2696 11.7553C43.4339 11.2698 43.4998 10.7934 43.5115 10.5517C43.5224 10.2864 43.6507 10.0394 43.8616 9.87788C44.0724 9.71624 44.3444 9.65684 44.6032 9.71504C45.2271 9.85564 45.7117 9.78713 46.0845 9.5058H46.0844ZM50.6094 28.0572C49.6907 28.0458 48.1764 28.0538 46.9133 28.1907C46.8805 28.1943 46.8479 28.196 46.8157 28.196C46.3645 28.196 45.9763 27.8559 45.9266 27.397C45.8733 26.9053 46.2286 26.4636 46.7203 26.4103C48.0455 26.2666 49.5778 26.2539 50.5471 26.2648C50.4589 24.1093 50.3093 21.6088 50.083 19.7454C50.058 19.5387 50.0338 19.3414 50.0101 19.1495C48.8113 19.1298 46.4669 19.1332 45.142 19.4146C44.6707 19.5186 44.1809 19.2116 44.0801 18.7246C43.9774 18.2409 44.2862 17.7654 44.7701 17.6625C46.1657 17.3661 48.4086 17.3393 49.7408 17.3539C49.6099 16.7033 49.471 16.2572 49.1989 15.7987C48.6467 14.9204 47.673 14.6086 45.7084 14.6491C43.7227 14.6949 42.4794 15.0341 42.3644 15.0529C42.3506 15.0552 40.9741 15.2902 39.2239 16.0263C38.4733 16.342 37.8878 16.6636 37.4571 16.9972C38.0778 17.3112 38.6775 17.6851 39.2389 18.1197C40.9753 19.4631 42.2203 21.2505 42.839 23.2882C43.5283 25.5588 43.4378 28.0586 42.5752 30.721H50.6441C50.656 29.8967 50.6415 29.2881 50.6096 28.0574L50.6094 28.0572ZM56.0188 11.6857C55.9196 11.5936 55.7808 11.5024 55.4975 11.5284C53.2673 11.7287 52.903 13.5919 52.87 13.7965C52.8356 14.0356 52.7376 14.2547 52.5425 14.3968C52.3512 14.5364 52.1431 14.5977 51.91 14.5622C51.779 14.5646 51.3194 14.6317 50.9948 15.3928C51.5209 16.5547 51.7033 18.2088 51.8969 19.8375C52.4068 19.4114 52.9119 19.1143 53.3613 18.9094C53.6865 18.7565 54.0737 18.6283 54.3292 18.5634C54.6501 17.6221 55.4218 15.5981 56.6574 13.7682C56.627 13.1372 56.4594 12.0945 56.0188 11.6857ZM52.4349 30.7209H53.6099L55.2633 27.6495L53.2608 21.036C52.8822 21.3197 52.4857 21.7037 52.1134 22.221C52.2345 23.861 52.3183 25.6158 52.3706 27.1128C52.3719 27.1298 52.3721 27.1471 52.3724 27.1644C52.4195 28.5287 52.4404 29.6735 52.4394 30.3088C52.4391 30.4458 52.4365 30.5834 52.4348 30.7207L52.4349 30.7209ZM60.8991 12.1788C59.856 12.6227 58.9456 13.587 58.2283 14.6252C56.7104 16.8232 55.8899 19.5546 55.8779 19.5947C55.7726 19.9536 55.4642 20.2086 55.0909 20.235C55.0777 20.2362 55.0091 20.2433 54.899 20.266L56.4609 25.4247L63.5732 12.2124C62.6357 11.82 61.7574 11.8089 60.8991 12.1788ZM63.9775 26.4945C64.1924 24.9102 63.1069 23.6349 63.099 23.6258C62.8111 23.3005 62.7986 22.815 63.0687 22.4749C63.1042 22.4301 66.6122 17.9651 65.9118 14.7529C65.7806 14.1513 65.5039 13.6366 65.0763 13.1988L55.6439 30.7207H61.0382C60.9827 30.3751 61.133 30.0281 61.425 29.8335C62.9565 28.8136 63.8153 27.6902 63.9776 26.4943L63.9775 26.4945ZM72.2303 45.7907L65.1079 32.512H38.5079L43.9798 42.7139C45.6796 43.486 47.2302 44.5307 48.5768 45.7907H72.2303ZM64.7484 73.4063V47.5816H50.2366C52.5724 50.4932 53.972 54.1865 53.972 58.201C53.972 64.8463 50.1387 70.6122 44.5677 73.4063H64.7484ZM37.2196 73.4063C45.492 73.2738 52.181 66.5044 52.181 58.201C52.181 49.815 45.3586 42.9925 36.9728 42.9925C28.5869 42.9925 21.7645 49.815 21.7645 58.201C21.7645 66.5044 28.4535 73.2738 36.7259 73.4063H37.2198H37.2196ZM9.2746 73.4063H29.3776C23.8066 70.6122 19.9733 64.8463 19.9733 58.201C19.9733 54.1865 21.373 50.4933 23.7087 47.5816H9.2746V73.4063ZM25.3685 45.7907C26.7421 44.5056 28.3278 43.4451 30.0675 42.6687L35.5152 32.512H8.91506L1.79277 45.7907H25.3684H25.3685Z" fill="#FDFDFD"/>
</svg>
