<svg width="75" height="75" viewBox="0 0 75 75" fill="none" xmlns="http://www.w3.org/2000/svg">
<g clip-path="url(#clip0_1130_1353)">
<mask id="mask0_1130_1353" style="mask-type:luminance" maskUnits="userSpaceOnUse" x="0" y="0" width="75" height="75">
<path d="M74.6636 0.00263214H0.00214386V74.6641H74.6636V0.00263214Z" fill="white"/>
</mask>
<g mask="url(#mask0_1130_1353)">
<path d="M21.5109 64.0163H27.5625C29.1733 64.0163 30.479 65.322 30.479 66.9327V72.9844" stroke="#FDFDFD" stroke-width="2.91646" stroke-miterlimit="10" stroke-linecap="round" stroke-linejoin="round"/>
<path d="M21.2917 19.1914V7.86868C21.2917 6.25792 22.5974 4.95222 24.2081 4.95222H35.4365" stroke="#FDFDFD" stroke-width="2.91646" stroke-miterlimit="10" stroke-linecap="round" stroke-linejoin="round"/>
<path d="M45.0317 73.207H30.48L21.2932 64.0202V55.5786" stroke="#FDFDFD" stroke-width="2.91646" stroke-miterlimit="10" stroke-linecap="round" stroke-linejoin="round"/>
<path d="M59.0612 4.95277H70.2896C71.9004 4.95277 73.2061 6.25847 73.2061 7.86924V70.2906C73.2061 71.9013 71.9004 73.207 70.2896 73.207H58.1564" stroke="#FDFDFD" stroke-width="2.91646" stroke-miterlimit="10" stroke-linecap="round" stroke-linejoin="round"/>
<path d="M37.9775 9.625H56.5214C57.4542 9.625 58.2104 8.86876 58.2104 7.93593V1.45891H36.2884V7.93593C36.2884 8.86876 37.0447 9.625 37.9775 9.625Z" stroke="#FDFDFD" stroke-width="2.91646" stroke-miterlimit="10" stroke-linecap="round" stroke-linejoin="round"/>
<path d="M63.418 41.5304L60.8019 44.1465L54.7179 38.0625" stroke="#FDFDFD" stroke-width="2.91646" stroke-miterlimit="10" stroke-linecap="round" stroke-linejoin="round"/>
<path d="M47.3062 44.125H40.4353" stroke="#FDFDFD" stroke-width="2.91646" stroke-miterlimit="10" stroke-linecap="round" stroke-linejoin="round"/>
<path d="M47.3062 37.7324H34.1022" stroke="#FDFDFD" stroke-width="2.91646" stroke-miterlimit="10" stroke-linecap="round" stroke-linejoin="round"/>
<path d="M63.418 57.4367L60.8019 60.0527L54.7179 53.9687" stroke="#FDFDFD" stroke-width="2.91646" stroke-miterlimit="10" stroke-linecap="round" stroke-linejoin="round"/>
<path d="M47.3062 60.0293H37.3123" stroke="#FDFDFD" stroke-width="2.91646" stroke-miterlimit="10" stroke-linecap="round" stroke-linejoin="round"/>
<path d="M47.3062 53.6348H34.1894" stroke="#FDFDFD" stroke-width="2.91646" stroke-miterlimit="10" stroke-linecap="round" stroke-linejoin="round"/>
<path d="M63.418 25.6378L60.8019 28.2539L54.7179 22.1699" stroke="#FDFDFD" stroke-width="2.91646" stroke-miterlimit="10" stroke-linecap="round" stroke-linejoin="round"/>
<path d="M47.3062 28.2324H40.7478" stroke="#FDFDFD" stroke-width="2.91646" stroke-miterlimit="10" stroke-linecap="round" stroke-linejoin="round"/>
<path d="M47.3062 21.8379H31.0664" stroke="#FDFDFD" stroke-width="2.91646" stroke-miterlimit="10" stroke-linecap="round" stroke-linejoin="round"/>
<path d="M28.292 27.4712V36.8205C28.292 43.2843 23.9396 48.9078 17.7927 50.5957C11.6458 48.9078 7.29346 43.2843 7.29346 36.8205V27.4712L17.7927 24.1933L28.292 27.4712Z" stroke="#FDFDFD" stroke-width="2.91646" stroke-miterlimit="10" stroke-linecap="round" stroke-linejoin="round"/>
<path d="M17.7929 18.0867L1.46014 23.1858V36.8248C1.46014 46.476 8.31353 54.7675 17.7923 56.584C27.271 54.7675 34.1245 46.476 34.1245 36.8248V23.1858L17.7916 18.0867" stroke="#FDFDFD" stroke-width="2.91646" stroke-miterlimit="10" stroke-linecap="round" stroke-linejoin="round"/>
<path d="M22.4595 36.9605L19.0997 40.3203L13.1268 34.3474" stroke="#FDFDFD" stroke-width="2.91646" stroke-miterlimit="10" stroke-linecap="round" stroke-linejoin="round"/>
</g>
</g>
<defs>
<clipPath id="clip0_1130_1353">
<rect width="74.6614" height="74.6614" fill="white" transform="matrix(-1 0 0 1 74.6611 0)"/>
</clipPath>
</defs>
</svg>
