<svg width="74" height="74" viewBox="0 0 74 74" fill="none" xmlns="http://www.w3.org/2000/svg">
<path d="M66.8544 4.625H7.14562C4.47469 4.625 2.3125 6.78719 2.3125 9.45813V50.6669C2.3125 53.3378 4.47469 55.5 7.14562 55.5H27.75V67.0625H19.6562C19.0203 67.0625 18.5 67.5828 18.5 68.2188C18.5 68.8547 19.0203 69.375 19.6562 69.375H54.3438C54.9797 69.375 55.5 68.8547 55.5 68.2188C55.5 67.5828 54.9797 67.0625 54.3438 67.0625H46.25V55.5H66.8544C69.5253 55.5 71.6875 53.3378 71.6875 50.6669V9.45813C71.6875 6.78719 69.5253 4.625 66.8544 4.625ZM7.14562 6.9375H66.8544C68.2419 6.9375 69.375 8.05906 69.375 9.45813V46.25H4.625V9.45813C4.625 8.07063 5.74656 6.9375 7.14562 6.9375ZM43.9375 67.0625H30.0625V55.5H43.9375V67.0625ZM66.8544 53.1875H7.14562C5.75812 53.1875 4.625 52.0659 4.625 50.6669V48.5625H69.375V50.6669C69.375 52.0544 68.2534 53.1875 66.8544 53.1875Z" fill="#FDFDFD"/>
<path d="M23.1252 31.2188C22.6511 31.2188 22.2233 31.5078 22.0499 31.9472L20.0264 37H16.0142C15.4939 35.0112 13.7017 33.5312 11.5511 33.5312C8.9958 33.5312 6.92611 35.6009 6.92611 38.1562C6.92611 40.7116 8.9958 42.7812 11.5511 42.7812C13.7017 42.7812 15.4939 41.3013 16.0142 39.3125H20.8011C21.2752 39.3125 21.703 39.0234 21.8764 38.5841L23.8999 33.5312H28.7446C30.8489 35.6703 33.7627 37 36.9886 37C40.2146 37 43.1283 35.6703 45.2327 33.5312H50.0311L52.0777 39.6825C52.2396 40.1566 52.6789 40.4688 53.1761 40.4688H58.4486C59.2464 41.8447 60.7264 42.7812 62.4261 42.7812C64.9814 42.7812 67.0511 40.7116 67.0511 38.1562C67.0511 35.6009 64.9814 33.5312 62.4261 33.5312C59.8708 33.5312 57.8011 35.6009 57.8011 38.1562H54.0086L51.9621 32.005C51.8002 31.5309 51.3608 31.2188 50.8636 31.2188H46.9902C47.603 30.155 48.0655 28.9872 48.3199 27.75H57.963C58.4833 29.7388 60.2755 31.2188 62.4261 31.2188C64.9814 31.2188 67.0511 29.1491 67.0511 26.5938C67.0511 24.0384 64.9814 21.9688 62.4261 21.9688C60.2755 21.9688 58.4833 23.4487 57.963 25.4375H48.5511C48.5511 24.235 48.3661 23.0672 48.0192 21.9688H50.8636C51.3377 21.9688 51.7655 21.6797 51.9389 21.2403L53.9624 16.1875H57.9746C58.4949 18.1762 60.2871 19.6562 62.4377 19.6562C64.993 19.6562 67.0627 17.5866 67.0627 15.0312C67.0627 12.4759 64.993 10.4062 62.4377 10.4062C60.2871 10.4062 58.4949 11.8863 57.9746 13.875H53.1877C52.7136 13.875 52.2858 14.1641 52.1124 14.6034L50.0889 19.6562H46.9902C44.9899 16.2106 41.2552 13.875 36.9886 13.875C32.7221 13.875 28.9989 16.2106 26.9871 19.6562H23.8883L21.8649 14.6034C21.6914 14.1641 21.2636 13.875 20.7896 13.875H16.0027C15.4824 11.8863 13.6902 10.4062 11.5396 10.4062C8.98424 10.4062 6.91455 12.4759 6.91455 15.0312C6.91455 17.5866 8.98424 19.6562 11.5396 19.6562C13.6902 19.6562 15.4824 18.1762 16.0027 16.1875H20.0149L22.0383 21.2403C22.2117 21.6797 22.6396 21.9688 23.1136 21.9688H25.958C25.6111 23.0672 25.4261 24.235 25.4261 25.4375H16.0258C15.5055 23.4487 13.7133 21.9688 11.5627 21.9688C9.00736 21.9688 6.93768 24.0384 6.93768 26.5938C6.93768 29.1491 9.00736 31.2188 11.5627 31.2188C13.7133 31.2188 15.5055 29.7388 16.0258 27.75H25.6689C25.9233 28.9872 26.3858 30.155 26.9986 31.2188H23.1252ZM11.5627 40.4688C10.2908 40.4688 9.25018 39.4281 9.25018 38.1562C9.25018 36.8844 10.2908 35.8438 11.5627 35.8438C12.8346 35.8438 13.8752 36.8844 13.8752 38.1562C13.8752 39.4281 12.8346 40.4688 11.5627 40.4688ZM62.4377 35.8438C63.7096 35.8438 64.7502 36.8844 64.7502 38.1562C64.7502 39.4281 63.7096 40.4688 62.4377 40.4688C61.1658 40.4688 60.1252 39.4281 60.1252 38.1562C60.1252 36.8844 61.1658 35.8438 62.4377 35.8438ZM62.4377 24.2812C63.7096 24.2812 64.7502 25.3219 64.7502 26.5938C64.7502 27.8656 63.7096 28.9062 62.4377 28.9062C61.1658 28.9062 60.1252 27.8656 60.1252 26.5938C60.1252 25.3219 61.1658 24.2812 62.4377 24.2812ZM62.4377 12.7188C63.7096 12.7188 64.7502 13.7594 64.7502 15.0312C64.7502 16.3031 63.7096 17.3438 62.4377 17.3438C61.1658 17.3438 60.1252 16.3031 60.1252 15.0312C60.1252 13.7594 61.1658 12.7188 62.4377 12.7188ZM11.5627 17.3438C10.2908 17.3438 9.25018 16.3031 9.25018 15.0312C9.25018 13.7594 10.2908 12.7188 11.5627 12.7188C12.8346 12.7188 13.8752 13.7594 13.8752 15.0312C13.8752 16.3031 12.8346 17.3438 11.5627 17.3438ZM11.5627 28.9062C10.2908 28.9062 9.25018 27.8656 9.25018 26.5938C9.25018 25.3219 10.2908 24.2812 11.5627 24.2812C12.8346 24.2812 13.8752 25.3219 13.8752 26.5938C13.8752 27.8656 12.8346 28.9062 11.5627 28.9062ZM37.0002 16.1875C42.0992 16.1875 46.2502 20.3384 46.2502 25.4375C46.2502 30.5366 42.0992 34.6875 37.0002 34.6875C31.9011 34.6875 27.7502 30.5366 27.7502 25.4375C27.7502 20.3384 31.9011 16.1875 37.0002 16.1875Z" fill="#FDFDFD"/>
</svg>
