<svg width="74" height="74" viewBox="0 0 74 74" fill="none" xmlns="http://www.w3.org/2000/svg">
<path d="M51.2409 42.7708C51.897 42.7708 52.429 42.2388 52.429 41.5827C52.429 40.9265 51.897 40.3945 51.2409 40.3945C50.5847 40.3945 50.0527 40.9265 50.0527 41.5827C50.0527 42.2388 50.5847 42.7708 51.2409 42.7708Z" fill="#FDFDFD"/>
<path d="M36.985 26.1419C37.6412 26.1419 38.1731 25.6099 38.1731 24.9537C38.1731 24.2976 37.6412 23.7656 36.985 23.7656C36.3288 23.7656 35.7969 24.2976 35.7969 24.9537C35.7969 25.6099 36.3288 26.1419 36.985 26.1419Z" fill="#FDFDFD"/>
<path d="M13.2233 16.6341C13.8795 16.6341 14.4114 16.1021 14.4114 15.4459C14.4114 14.7898 13.8795 14.2578 13.2233 14.2578C12.5671 14.2578 12.0352 14.7898 12.0352 15.4459C12.0352 16.1021 12.5671 16.6341 13.2233 16.6341Z" fill="#FDFDFD"/>
<path d="M29.8561 49.8997C30.5123 49.8997 31.0442 49.3677 31.0442 48.7116C31.0442 48.0554 30.5123 47.5234 29.8561 47.5234C29.1999 47.5234 28.668 48.0554 28.668 48.7116C28.668 49.3677 29.1999 49.8997 29.8561 49.8997Z" fill="#FDFDFD"/>
<path d="M13.2233 45.1458C13.8795 45.1458 14.4114 44.6138 14.4114 43.9577C14.4114 43.3015 13.8795 42.7695 13.2233 42.7695C12.5671 42.7695 12.0352 43.3015 12.0352 43.9577C12.0352 44.6138 12.5671 45.1458 13.2233 45.1458Z" fill="#FDFDFD"/>
<path d="M12.0352 49.8984H14.4114V54.6509H12.0352V49.8984Z" fill="#FDFDFD"/>
<path d="M44.3217 21.3862H44.1138V23.7625H44.3217C45.0192 23.7625 45.6857 23.6211 46.3059 23.3799C48.2354 26.5474 51.7249 28.515 55.4354 28.515H73.8169V26.1387H55.4354C52.5317 26.1387 49.7978 24.5918 48.3043 22.1015L48.2829 22.0658C48.9257 21.3945 49.4069 20.5593 49.6445 19.6064L50.3883 16.6337H47.6782V15.3363C47.6782 12.8412 46.9463 10.4246 45.5621 8.34656C45.0536 7.58379 44.2017 7.12874 43.2857 7.12874C41.7768 7.12874 40.5495 8.35607 40.5495 9.86499C40.5495 11.6757 39.9518 13.4721 38.8647 14.9204L37.5791 16.6337H37.477C36.9946 16.6337 36.5265 16.6896 36.069 16.7822L33.0928 10.4056C30.1427 4.08477 23.7292 0 16.7537 0C12.6761 0 8.67568 1.40317 5.49151 3.9517L3.35288 5.66141L6.83646 11.4666C6.04874 12.3791 5.36794 13.3913 4.85348 14.5082L0 25.0231L4.51012 32.5403L14.463 26.3205C14.6519 26.2017 14.8694 26.1399 15.0927 26.1399H15.7236L16.5422 33.5039C16.2155 33.6096 15.8971 33.7415 15.5989 33.9162C14.8777 33.4932 14.0602 33.2674 13.2226 33.2674C10.6016 33.2674 8.47013 35.3989 8.47013 38.0199C8.47013 38.911 8.72914 39.7522 9.18182 40.4889C8.57112 41.1697 8.08637 41.9609 7.75963 42.833C5.42497 43.1229 3.47288 44.7994 2.88952 47.1305L2.19565 49.9012H7.28201V57.0299H0.153268V73.6636H73.8169V57.0299H59.5594V54.9341C59.5594 53.7234 59.3776 52.5329 59.0331 51.3804C60.8248 49.8881 61.9357 47.6461 61.9357 45.1487H59.5594C59.5594 48.0002 57.5135 50.3847 54.6952 50.8184L45.7344 52.1966C43.919 50.178 42.9257 47.5962 42.9257 44.86V44.6948L45.9388 43.1883C46.9546 42.6809 47.6734 41.7079 47.8612 40.5863L48.1879 38.6223C48.4754 36.896 49.9546 35.6437 51.7047 35.6437H52.4307V37.3011C52.4307 38.8932 53.222 40.3712 54.5467 41.2552L57.1832 43.0124L59.8196 41.2552C61.1444 40.3712 61.9357 38.892 61.9357 37.3011V36.5146C62.4727 36.9578 62.8969 37.534 63.1238 38.2136L63.2901 38.7114C64.0992 41.1399 66.365 42.7724 68.9254 42.7724H73.8169V40.3962H68.9254C67.3892 40.3962 66.0299 39.4172 65.544 37.9593L65.3777 37.4615C64.7587 35.6069 63.2783 34.168 61.439 33.5728C60.6668 31.9914 59.058 30.8912 57.1832 30.8912C55.4319 30.8912 53.9158 31.8536 53.0913 33.2674H51.7036C48.7867 33.2674 46.3225 35.355 45.8437 38.2314L45.517 40.1942C45.454 40.5685 45.2152 40.8928 44.8754 41.0615L43.7455 41.6271C43.2168 40.7205 42.9257 39.6809 42.9257 38.5962C42.9257 36.9839 42.4647 35.4441 41.614 34.1181C43.8346 33.151 45.3019 30.9732 45.3019 28.515H42.9257C42.9257 30.1344 41.8932 31.5672 40.3558 32.0793L38.0176 32.8587C36.8651 33.2425 35.8718 33.9589 35.1447 34.9296L33.8972 36.593C33.2271 37.4865 32.1601 38.0199 31.0445 38.0199C30.4956 38.0199 29.9823 37.8857 29.5177 37.6623L33.0726 34.1075L31.3926 32.4274L27.8377 35.9823C27.6144 35.5178 27.4801 35.0045 27.4801 34.4556V32.0793C27.4801 31.7074 27.6571 31.3522 27.9553 31.1288L29.7399 29.791C31.2785 28.6373 32.2979 26.8801 32.5368 24.972L32.7613 23.1732C33.0571 20.7993 35.0853 19.01 37.477 19.01H38.7673L40.7657 16.3462C41.1328 15.8567 41.4536 15.3351 41.7316 14.7921L45.3019 16.1549V16.6539C43.3249 16.7537 41.5677 17.8813 40.6742 19.667L42.7998 20.7304C43.3309 19.6694 44.3966 19.01 45.5823 19.01H47.3443L47.3396 19.0302C46.9926 20.4179 45.7522 21.3862 44.3217 21.3862ZM54.8069 35.6437C54.8069 34.3332 55.8727 33.2674 57.1832 33.2674C58.4937 33.2674 59.5594 34.3332 59.5594 35.6437V37.3011C59.5594 38.0972 59.1638 38.8362 58.5008 39.2782L57.1832 40.1562L55.8655 39.277C55.2026 38.8362 54.8069 38.096 54.8069 37.3011V35.6437ZM28.1205 15.2258C27.8223 14.4488 27.4575 13.7074 27.0417 13.0016L30.3352 10.2571C30.5502 10.6325 30.7546 11.0151 30.9399 11.4107L32.2088 14.1303L28.4258 16.0218L28.1205 15.2258ZM28.989 8.28478L25.6646 11.0543C24.9755 10.225 24.1961 9.47528 23.3395 8.81112L25.5601 5.11131C26.848 5.98933 28.0064 7.05626 28.989 8.28478ZM13.4947 7.30815C13.4828 7.31171 13.4709 7.31646 13.4579 7.32003L11.4523 3.31011C12.6297 2.88595 13.8559 2.60793 15.1046 2.47486L13.4947 7.30815ZM21.4789 7.29745C21.3066 5.62339 20.7173 4.04199 19.7525 2.67803C21.0583 2.93585 22.3177 3.35645 23.5035 3.92556L21.4789 7.29745ZM6.97547 5.80636C7.69904 5.22774 8.47369 4.7216 9.28281 4.282L11.2147 8.14577C10.2761 8.58538 9.39449 9.12716 8.58894 9.76994L6.45864 6.21982L6.97547 5.80636ZM13.2226 35.6437C13.9604 35.6437 14.4892 35.9811 14.804 36.2627L15.5989 36.9791L16.3937 36.2639C16.7086 35.9811 17.2373 35.6437 17.9751 35.6437C19.2856 35.6437 20.3514 36.7094 20.3514 38.0199C20.3514 38.734 20.0329 39.3898 19.5078 39.833C18.1949 38.6995 16.5066 38.0199 14.684 38.0199C13.3628 38.0199 12.1248 38.3716 11.0495 38.9811C10.9177 38.6817 10.8464 38.3574 10.8464 38.0199C10.8464 36.7094 11.9121 35.6437 13.2226 35.6437ZM5.24556 47.5249C5.55923 46.5103 6.32557 45.7309 7.28557 45.3709C7.28438 45.3875 7.28201 45.4053 7.28201 45.4219V47.5249H5.24556ZM9.65825 45.4219C9.65825 42.6512 11.9133 40.3962 14.684 40.3962C16.85 40.3962 18.7664 41.778 19.452 43.8334L20.412 46.7134C20.6353 47.3847 20.9454 48.0121 21.3173 48.6026C20.5462 49.2334 19.9664 50.102 19.711 51.1249L18.8294 54.6537H24.8223L27.1985 55.8418C27.7237 56.1044 28.1134 56.5297 28.3653 57.0299H9.65825V45.4219ZM21.8733 52.2774L22.0183 51.7012C22.2488 50.7756 23.0021 50.0948 23.9169 49.9368V52.2774H21.8733ZM38.2837 57.0299H30.8948C30.5526 55.6077 29.614 54.3923 28.2631 53.7162L26.292 52.7313V49.9012C26.292 47.2802 28.4235 45.1487 31.0445 45.1487C33.6655 45.1487 35.797 47.2802 35.797 49.9012V50.5285C35.797 52.9891 36.713 55.2727 38.2837 57.0299ZM64.3119 71.2874H61.9357V59.4062H64.3119V71.2874ZM54.8069 66.5349H59.5594V71.2874H54.8069V66.5349ZM59.5594 64.1586H54.8069V59.4062H59.5594V64.1586ZM52.4307 71.2874H50.0544V59.4062H52.4307V71.2874ZM12.0345 64.1586H7.28201V59.4062H12.0345V64.1586ZM7.28201 66.5349H12.0345V71.2874H7.28201V66.5349ZM14.4107 59.4062H16.787V71.2874H14.4107V59.4062ZM23.9157 64.1586H19.1632V59.4062H23.9157V64.1586ZM19.1632 66.5349H23.9157V71.2874H19.1632V66.5349ZM26.292 59.4062H28.6682V71.2874H26.292V59.4062ZM35.797 64.1586H31.0445V59.4062H35.797V64.1586ZM31.0445 66.5349H35.797V71.2874H31.0445V66.5349ZM38.1732 59.4062H40.5495V71.2874H38.1732V59.4062ZM42.9257 66.5349H47.6782V71.2874H42.9257V66.5349ZM47.6782 64.1586H42.9257V59.4062H47.6782V64.1586ZM2.52951 59.4062H4.90576V71.2874H2.52951V59.4062ZM66.6882 71.2874V66.5349H71.4407V71.2874H66.6882ZM71.4407 64.1586H66.6882V59.4062H71.4407V64.1586ZM28.3142 27.89L26.5284 29.2278C25.6361 29.8979 25.1039 30.9637 25.1039 32.0793V34.4556C25.1039 37.7312 27.7688 40.3962 31.0445 40.3962C32.9039 40.3962 34.6813 39.5075 35.797 38.0199L37.0457 36.3554C37.4817 35.7732 38.0782 35.3431 38.7696 35.1138L39.2639 34.9486C40.0825 35.9906 40.5495 37.2572 40.5495 38.6318C40.5495 40.0588 40.9225 41.4596 41.6128 42.6952L40.5495 43.2263V44.86C40.5495 48.4279 41.9384 51.782 44.4619 54.3055L44.8873 54.7309L55.0564 53.1661C55.7075 53.0663 56.3254 52.8857 56.9099 52.6469C57.0846 53.3943 57.1832 54.1582 57.1832 54.9329V57.0299H42.056C39.6596 55.7325 38.1732 53.2695 38.1732 50.5285V49.9012C38.1732 45.9697 34.976 42.7724 31.0445 42.7724C27.947 42.7724 25.313 44.7602 24.3316 47.5249H24.3221C24.0512 47.5249 23.7862 47.5487 23.526 47.5915C23.1696 47.0877 22.8631 46.5518 22.6658 45.9602L21.7058 43.0802C21.5359 42.5716 21.2995 42.1035 21.0333 41.6556C22.0908 40.7693 22.7276 39.4516 22.7276 38.0199C22.7276 35.7221 21.088 33.8009 18.9173 33.3625L18.1117 26.1126C20.7327 25.9771 23.0175 24.2745 23.8551 21.7617L21.6013 21.0096C21.0512 22.6563 19.5173 23.7625 17.7826 23.7625H15.0927C14.4238 23.7625 13.7703 23.9502 13.2036 24.3042L5.30259 29.2421L2.68397 24.8781L7.01111 15.5038C8.4428 12.4028 11.2967 10.1525 14.6448 9.48241L15.3208 9.34696L17.2991 3.4111C18.4991 4.76794 19.1632 6.48953 19.1632 8.31686V9.05112L19.8203 9.37904C22.6195 10.7787 24.7795 13.1573 25.9035 16.0777L29.7494 26.0793C29.4203 26.785 28.9427 27.4171 28.3142 27.89ZM30.6441 21.7866L29.2837 18.2484L33.214 16.2832L33.8461 17.6377C32.3146 18.549 31.155 20.0211 30.6441 21.7866ZM42.9257 9.86499C42.9257 9.54657 43.4081 9.39924 43.5851 9.66538C44.3716 10.8464 44.8825 12.1664 45.1273 13.5446L42.574 12.5703C42.8021 11.6888 42.9257 10.7787 42.9257 9.86499Z" fill="#FDFDFD"/>
</svg>
