<svg width="64" height="64" viewBox="0 0 64 64" fill="none" xmlns="http://www.w3.org/2000/svg">
<g clip-path="url(#clip0_1130_1458)">
<path d="M18.1328 36.2695H20.2661V38.4028H18.1328V36.2695Z" fill="#FDFDFD"/>
<path d="M22.4009 36.2695H24.5342V38.4028H22.4009V36.2695Z" fill="#FDFDFD"/>
<path d="M26.6665 36.2695H28.7998V38.4028H26.6665V36.2695Z" fill="#FDFDFD"/>
<path d="M18.1328 40.5312H20.2661V42.6646H18.1328V40.5312Z" fill="#FDFDFD"/>
<path d="M22.4009 40.5312H24.5342V42.6646H22.4009V40.5312Z" fill="#FDFDFD"/>
<path d="M26.6665 40.5312H28.7998V42.6646H26.6665V40.5312Z" fill="#FDFDFD"/>
<path d="M30.9326 40.5312H33.0659V42.6646H30.9326V40.5312Z" fill="#FDFDFD"/>
<path d="M35.2002 40.5312H37.3335V42.6646H35.2002V40.5312Z" fill="#FDFDFD"/>
<path d="M18.1328 44.8008H20.2661V46.9341H18.1328V44.8008Z" fill="#FDFDFD"/>
<path d="M22.4009 44.8008H24.5342V46.9341H22.4009V44.8008Z" fill="#FDFDFD"/>
<path d="M26.6665 44.8008H28.7998V46.9341H26.6665V44.8008Z" fill="#FDFDFD"/>
<path d="M30.9326 44.8008H33.0659V46.9341H30.9326V44.8008Z" fill="#FDFDFD"/>
<path d="M35.2002 44.8008H37.3335V46.9341H35.2002V44.8008Z" fill="#FDFDFD"/>
<path d="M18.1328 49.0645H20.2661V51.1978H18.1328V49.0645Z" fill="#FDFDFD"/>
<path d="M22.4009 49.0645H24.5342V51.1978H22.4009V49.0645Z" fill="#FDFDFD"/>
<path d="M26.6665 49.0645H28.7998V51.1978H26.6665V49.0645Z" fill="#FDFDFD"/>
<path d="M30.9326 49.0645H33.0659V51.1978H30.9326V49.0645Z" fill="#FDFDFD"/>
<path d="M35.2002 49.0645H37.3335V51.1978H35.2002V49.0645Z" fill="#FDFDFD"/>
<path d="M18.1328 53.334H20.2661V55.4673H18.1328V53.334Z" fill="#FDFDFD"/>
<path d="M22.4009 53.334H24.5342V55.4673H22.4009V53.334Z" fill="#FDFDFD"/>
<path d="M26.6665 53.334H28.7998V55.4673H26.6665V53.334Z" fill="#FDFDFD"/>
<path d="M30.9326 53.334H33.0659V55.4673H30.9326V53.334Z" fill="#FDFDFD"/>
<path d="M35.2002 53.334H37.3335V55.4673H35.2002V53.334Z" fill="#FDFDFD"/>
<path d="M18.1328 57.6035H20.2661V59.7368H18.1328V57.6035Z" fill="#FDFDFD"/>
<path d="M22.4009 57.6035H24.5342V59.7368H22.4009V57.6035Z" fill="#FDFDFD"/>
<path d="M26.6665 57.6035H28.7998V59.7368H26.6665V57.6035Z" fill="#FDFDFD"/>
<path d="M30.9326 57.6035H33.0659V59.7368H30.9326V57.6035Z" fill="#FDFDFD"/>
<path d="M35.2002 57.6035H37.3335V59.7368H35.2002V57.6035Z" fill="#FDFDFD"/>
<path d="M62.9329 3.19998H55.4663V1.06666C55.4663 0.477601 54.9887 0 54.3996 0H43.733C43.144 0 42.6664 0.477601 42.6664 1.06666V3.19998H1.06666C0.477601 3.19998 0 3.67758 0 4.26664V8.53327C0 9.12285 0.477601 9.59993 1.06666 9.59993H4.26664V29.8665C4.26664 30.456 4.74424 30.9331 5.33329 30.9331C5.92235 30.9331 6.39995 31.4107 6.39995 31.9998C6.39995 32.5893 5.92235 33.0664 5.33329 33.0664C4.74424 33.0664 4.26664 32.5893 4.26664 31.9998H2.13332C2.13644 32.7805 2.42654 33.5331 2.94946 34.1133L0.21354 37.7601L0.227082 37.7706C0.0843743 37.9497 0.00468746 38.1711 0 38.3997V42.6664C0 42.9497 0.112499 43.2205 0.312498 43.4205L2.44582 45.5538C2.64581 45.7538 2.91717 45.8663 3.19998 45.8663H7.46661C7.74942 45.8663 8.02078 45.7538 8.22077 45.5538L10.3541 43.4205C10.5541 43.2205 10.6666 42.9497 10.6666 42.6664V38.3997C10.6619 38.1711 10.5822 37.9497 10.4395 37.7706L10.453 37.7601L7.71713 34.1133C8.42963 33.3216 8.69837 32.2258 8.43327 31.1946C8.16869 30.1633 7.40515 29.3331 6.39995 28.9826V9.59993H42.6664V10.6666C42.6664 11.2562 43.144 11.7332 43.733 11.7332H45.8663V61.8662H41.5997V19.1999H39.4664V23.4665H33.0664V21.3332H30.9331V23.4665H24.5332V22.3998H22.3998V23.4665H15.9999V20.2665H29.8665V18.1332H15.9999V13.8666H13.8666V61.8662H12.1749L7.15412 56.8459C6.73745 56.4293 6.06246 56.4293 5.64579 56.8459L0.624995 61.8662H0V63.9995H63.9995V61.8662H63.1678C63.9183 61.047 64.185 59.8938 63.8704 58.8277C63.5563 57.7621 62.7068 56.9381 61.6313 56.6569C62.1735 55.3199 61.7548 53.7861 60.6079 52.9106C59.4616 52.035 57.8709 52.035 56.7246 52.9106C55.5777 53.7861 55.159 55.3199 55.7012 56.6569C54.6256 56.9381 53.7762 57.7621 53.4621 58.8277C53.1475 59.8938 53.4142 61.047 54.1647 61.8662H52.2663V11.7332H54.3996C54.9887 11.7332 55.4663 11.2562 55.4663 10.6666V9.59993H62.9329C63.5219 9.59993 63.9995 9.12285 63.9995 8.53327V4.26664C63.9995 3.67758 63.5219 3.19998 62.9329 3.19998ZM5.86662 35.1997L7.46661 37.3331H3.19998L4.79997 35.1997H5.86662ZM8.53327 42.2252L7.02495 43.733H3.64164L2.13332 42.2252V39.4664H8.53327V42.2252ZM58.3465 5.33329L55.4663 7.25359V5.33329H58.3465ZM44.7997 2.13332H49.0663V6.39995H44.7997V2.13332ZM15.9999 5.54683L18.8801 7.46661H13.1197L15.9999 5.54683ZM9.59993 7.25359L6.71974 5.33329H12.4801L9.59993 7.25359ZM19.5197 5.33329H25.28L22.3998 7.25359L19.5197 5.33329ZM28.7998 5.54683L31.68 7.46661H25.9196L28.7998 5.54683ZM32.3196 5.33329H38.0799L35.1997 7.25359L32.3196 5.33329ZM2.13332 5.33329H2.88019L6.08016 7.46661H2.13332V5.33329ZM38.7195 7.46661L41.9195 5.33329H42.6664V7.46661H38.7195ZM50.133 58.3465L48.2132 55.4663L50.133 52.5866V58.3465ZM50.133 32.7466L48.2132 29.8665L50.133 26.9868V32.7466ZM47.9997 33.3867L49.9194 36.2664L47.9997 39.1466V33.3867ZM47.9997 26.3467V20.5868L49.9194 23.4665L47.9997 26.3467ZM47.9997 46.1866L49.9194 49.0663L47.9997 51.9465V46.1866ZM50.133 45.5403L48.2132 42.6664L50.133 39.7867V45.5403ZM48.2132 17.0665L50.133 14.1869V19.9467L48.2132 17.0665ZM47.9997 13.5468V11.7332H49.2069L47.9997 13.5468ZM39.4664 25.5998V36.2664H33.0664V25.5998H39.4664ZM30.9331 25.5998V34.7732L28.48 32.3487C28.281 32.1524 28.0128 32.0414 27.7331 32.0404H24.5332V25.5998H30.9331ZM22.3998 25.5998V27.3779H15.9999V25.5998H22.3998ZM6.39995 59.1079L9.15827 61.8662H3.64164L6.39995 59.1079ZM15.9999 61.8662V29.5112H22.3998V33.1112C22.3998 33.7008 22.8774 34.1779 23.4665 34.1779H27.2946L31.2529 38.0919C31.4519 38.2883 31.7201 38.3992 31.9998 38.3997H39.4664V61.8662H15.9999ZM47.9997 58.9866L49.9194 61.8662H47.9997V58.9866ZM60.7996 60.7996C60.2105 60.7996 59.7329 60.3225 59.7329 59.7329C59.7329 59.1438 60.2105 58.6662 60.7996 58.6662C61.3886 58.6662 61.8662 59.1438 61.8662 59.7329C61.8662 60.3225 61.3886 60.7996 60.7996 60.7996ZM58.6662 54.3996C59.2553 54.3996 59.7329 54.8772 59.7329 55.4663C59.7329 56.0558 59.2553 56.5329 58.6662 56.5329C58.0772 56.5329 57.5996 56.0558 57.5996 55.4663C57.5996 54.8772 58.0772 54.3996 58.6662 54.3996ZM56.5329 58.6662C57.122 58.6662 57.5996 59.1438 57.5996 59.7329C57.5996 60.3225 57.122 60.7996 56.5329 60.7996C55.9439 60.7996 55.4663 60.3225 55.4663 59.7329C55.4663 59.1438 55.9439 58.6662 56.5329 58.6662ZM53.3329 9.59993H44.7997V8.53327H50.133C50.722 8.53327 51.1996 8.05619 51.1996 7.46661V2.13332H53.3329V9.59993ZM58.986 7.46661L61.8662 5.54683V7.46661H58.986Z" fill="#FDFDFD"/>
</g>
<defs>
<clipPath id="clip0_1130_1458">
<rect width="64" height="64" fill="white"/>
</clipPath>
</defs>
</svg>
