<svg width="76" height="76" viewBox="0 0 76 76" fill="none" xmlns="http://www.w3.org/2000/svg">
<path d="M71.25 59.375V32.0625C71.2447 27.3399 69.3664 22.8123 66.027 19.473C62.6877 16.1336 58.1601 14.2553 53.4375 14.25H22.5625C17.8399 14.2553 13.3123 16.1336 9.97296 19.473C6.63361 22.8123 4.75525 27.3399 4.75 32.0625V59.375H2.375V61.75H73.625V59.375H71.25ZM66.5 48.6875H65.3125V47.5C65.3132 46.8703 65.5637 46.2667 66.0089 45.8214C66.4542 45.3762 67.0578 45.1257 67.6875 45.125H68.875V46.3125C68.8743 46.9422 68.6238 47.5458 68.1786 47.9911C67.7333 48.4363 67.1297 48.6868 66.5 48.6875ZM14.25 48.6875H13.0625V47.5C13.0632 46.8703 13.3137 46.2667 13.7589 45.8214C14.2042 45.3762 14.8078 45.1257 15.4375 45.125H16.625V46.3125C16.6243 46.9422 16.3738 47.5458 15.9286 47.9911C15.4833 48.4363 14.8797 48.6868 14.25 48.6875ZM16.625 36.8125V42.75H15.4375C14.7631 42.7499 14.0964 42.8938 13.4821 43.172C12.8677 43.4502 12.3198 43.8563 11.875 44.3632C11.4302 43.8563 10.8823 43.4502 10.2679 43.172C9.65357 42.8938 8.98691 42.7499 8.3125 42.75H7.125V33.25H38V42.75H36.8125C36.1381 42.7499 35.4714 42.8938 34.8571 43.172C34.2427 43.4502 33.6948 43.8563 33.25 44.3632C32.8052 43.8563 32.2573 43.4502 31.6429 43.172C31.0286 42.8938 30.3619 42.7499 29.6875 42.75H28.5V36.8125C28.5 36.6565 28.4694 36.5021 28.4097 36.358C28.35 36.2139 28.2626 36.083 28.1523 35.9727C28.042 35.8624 27.9111 35.775 27.767 35.7153C27.6229 35.6556 27.4685 35.625 27.3125 35.625H17.8125C17.6565 35.625 17.5021 35.6556 17.358 35.7153C17.2139 35.775 17.083 35.8624 16.9727 35.9727C16.8624 36.083 16.775 36.2139 16.7153 36.358C16.6556 36.5021 16.625 36.6565 16.625 36.8125ZM30.875 19.0579C32.8885 20.346 34.5759 22.0836 35.8045 24.1341C37.0331 26.1845 37.7693 28.4919 37.9555 30.875H30.875V19.0579ZM28.5 46.3125V45.125H29.6875C30.3172 45.1257 30.9208 45.3762 31.3661 45.8214C31.8113 46.2667 32.0618 46.8703 32.0625 47.5V48.6875H30.875C30.2453 48.6868 29.6417 48.4363 29.1964 47.9911C28.7512 47.5458 28.5007 46.9422 28.5 46.3125ZM34.4375 47.5C34.4382 46.8703 34.6887 46.2667 35.1339 45.8214C35.5792 45.3762 36.1828 45.1257 36.8125 45.125H38V46.3125C37.9993 46.9422 37.7488 47.5458 37.3036 47.9911C36.8583 48.4363 36.2547 48.6868 35.625 48.6875H34.4375V47.5ZM40.375 33.25H53.4375V42.75H52.25C51.5756 42.7499 50.9089 42.8938 50.2946 43.172C49.6802 43.4502 49.1323 43.8563 48.6875 44.3632C48.2427 43.8563 47.6948 43.4502 47.0804 43.172C46.4661 42.8938 45.7994 42.7499 45.125 42.75H42.75C42.4351 42.75 42.133 42.8751 41.9103 43.0978C41.6876 43.3205 41.5625 43.6226 41.5625 43.9375V46.3125C41.5619 47.1467 41.7824 47.9662 42.2015 48.6875H40.375V33.25ZM43.9375 46.3125V45.125H45.125C45.7547 45.1257 46.3583 45.3762 46.8036 45.8214C47.2488 46.2667 47.4993 46.8703 47.5 47.5V48.6875H46.3125C45.6828 48.6868 45.0792 48.4363 44.6339 47.9911C44.1887 47.5458 43.9382 46.9422 43.9375 46.3125ZM49.875 47.5C49.8757 46.8703 50.1262 46.2667 50.5714 45.8214C51.0167 45.3762 51.6203 45.1257 52.25 45.125H53.4375V46.3125C53.4368 46.9422 53.1863 47.5458 52.7411 47.9911C52.2958 48.4363 51.6922 48.6868 51.0625 48.6875H49.875V47.5ZM55.8125 33.25H68.875V42.75H67.6875C67.0131 42.7499 66.3464 42.8938 65.7321 43.172C65.1177 43.4502 64.5698 43.8563 64.125 44.3632C63.6802 43.8563 63.1323 43.4502 62.5179 43.172C61.9036 42.8938 61.2369 42.7499 60.5625 42.75H58.1875C57.8726 42.75 57.5705 42.8751 57.3478 43.0978C57.1251 43.3205 57 43.6226 57 43.9375V46.3125C56.9994 47.1467 57.2199 47.9662 57.639 48.6875H55.8125V33.25ZM59.375 46.3125V45.125H60.5625C61.1922 45.1257 61.7958 45.3762 62.2411 45.8214C62.6863 46.2667 62.9368 46.8703 62.9375 47.5V48.6875H61.75C61.1203 48.6868 60.5167 48.4363 60.0714 47.9911C59.6262 47.5458 59.3757 46.9422 59.375 46.3125ZM53.4375 16.625C57.3251 16.6294 61.0683 18.0984 63.9211 20.7394C66.7739 23.3804 68.5268 26.9993 68.8305 30.875H55.7724C55.5748 27.9518 54.6598 25.1224 53.1085 22.6369C51.5572 20.1515 49.4173 18.0866 46.8781 16.625H53.4375ZM38 16.625C41.8876 16.6294 45.6308 18.0984 48.4836 20.7394C51.3364 23.3804 53.0893 26.9993 53.393 30.875H40.3349C40.1373 27.9518 39.2223 25.1224 37.671 22.6369C36.1197 20.1515 33.9798 18.0866 31.4406 16.625H38ZM22.5625 16.625C24.6009 16.6229 26.6192 17.0266 28.5 17.8125V30.875H16.625V17.8125C18.5058 17.0266 20.5241 16.6229 22.5625 16.625ZM14.25 19.0579V30.875H7.16954C7.35567 28.4919 8.09196 26.1845 9.32052 24.1341C10.5491 22.0836 12.2365 20.346 14.25 19.0579ZM7.125 45.125H8.3125C8.94217 45.1257 9.54584 45.3762 9.99108 45.8214C10.4363 46.2667 10.6868 46.8703 10.6875 47.5V48.6875H9.5C8.87033 48.6868 8.26666 48.4363 7.82142 47.9911C7.37617 47.5458 7.12572 46.9422 7.125 46.3125V45.125ZM7.125 59.375V51.0625H16.625V59.375H7.125ZM19 59.375V38H26.125V59.375H19ZM28.5 51.0625H38V59.375H28.5V51.0625ZM40.375 51.0625H53.4375V59.375H40.375V51.0625ZM55.8125 51.0625H68.875V59.375H55.8125V51.0625Z" fill="#020202"/>
</svg>
