<svg width="74" height="74" viewBox="0 0 74 74" fill="none" xmlns="http://www.w3.org/2000/svg">
<g clip-path="url(#clip0_1130_2419)">
<mask id="mask0_1130_2419" style="mask-type:luminance" maskUnits="userSpaceOnUse" x="-1" y="0" width="75" height="75">
<path d="M-0.00195312 0.00391388H73.998V74.0039H-0.00195312V0.00391388Z" fill="white"/>
</mask>
<g mask="url(#mask0_1130_2419)">
<path d="M20.0705 56.7012C17.7724 40.3431 18.7263 23.2855 19.0443 18.7559" stroke="#020202" stroke-width="1.91406" stroke-miterlimit="10" stroke-linecap="round" stroke-linejoin="round"/>
<path d="M14.5319 32.3173C17.6693 36.6125 19.4247 41.6639 17.8687 42.8005C16.3128 43.9369 12.0349 40.728 8.89751 36.4328C5.76017 32.1377 4.95152 28.3826 6.5074 27.2461C8.06342 26.1096 11.3946 28.0221 14.5319 32.3173Z" stroke="#020202" stroke-width="1.91406" stroke-miterlimit="10" stroke-linecap="round" stroke-linejoin="round"/>
<path d="M22.9337 32.7079C19.7963 37.0031 18.0409 42.0545 19.5969 43.1911C21.1528 44.3275 25.4307 41.1186 28.5681 36.8236C31.7054 32.5283 32.5141 28.7732 30.9582 27.6368C29.4022 26.5002 26.071 28.4128 22.9337 32.7079Z" stroke="#020202" stroke-width="1.91406" stroke-miterlimit="10" stroke-linecap="round" stroke-linejoin="round"/>
<path d="M14.7397 45.3853C18.1876 47.9188 20.3211 51.1185 18.8629 52.0604C17.4046 53.0023 12.907 51.3296 9.45896 48.7961C6.01087 46.2626 4.91822 43.8276 6.37639 42.8858C7.83471 41.9438 11.2916 42.8518 14.7397 45.3853Z" stroke="#020202" stroke-width="1.91406" stroke-miterlimit="10" stroke-linecap="round" stroke-linejoin="round"/>
<path d="M23.826 44.9294C20.5211 47.647 18.5652 50.9581 20.0725 51.819C21.5798 52.68 25.9796 50.765 29.2846 48.0473C32.5895 45.3299 33.548 42.8389 32.0405 41.9779C30.5332 41.1168 27.1308 42.2117 23.826 44.9294Z" stroke="#020202" stroke-width="1.91406" stroke-miterlimit="10" stroke-linecap="round" stroke-linejoin="round"/>
<path d="M6.76879 18.0727C5.86836 15.8536 5.88658 14.1354 6.83239 13.4446C8.29793 12.374 11.4356 14.1755 14.3906 18.221C17.3457 22.2667 18.9992 27.0247 17.5336 28.0951C16.0681 29.1655 12.0385 26.1432 9.08361 22.0975" stroke="#020202" stroke-width="1.91406" stroke-miterlimit="10" stroke-linecap="round" stroke-linejoin="round"/>
<path d="M22.7615 18.7465C19.8064 22.7921 18.153 27.5501 19.6185 28.6205C21.0841 29.691 25.1135 26.6687 28.0686 22.623C31.0236 18.5774 31.7853 15.0404 30.3198 13.9699C28.8542 12.8995 25.7166 14.7008 22.7615 18.7465Z" stroke="#020202" stroke-width="1.91406" stroke-miterlimit="10" stroke-linecap="round" stroke-linejoin="round"/>
<path d="M22.6773 11.6996C22.2732 15.5172 20.5755 18.9241 18.9445 18.7515C17.3136 18.5788 16.3671 14.8918 16.7713 11.0743C17.1754 7.25667 18.7774 4.75411 20.4083 4.92682C22.0391 5.09954 23.0814 7.88206 22.6773 11.6996Z" stroke="#020202" stroke-width="1.91406" stroke-miterlimit="10" stroke-linecap="round" stroke-linejoin="round"/>
<path d="M55.8834 56.7246C53.5824 40.3608 54.5363 23.2888 54.8557 18.7563" stroke="#020202" stroke-width="1.91406" stroke-miterlimit="10" stroke-linecap="round" stroke-linejoin="round"/>
<path d="M50.344 32.3173C53.4813 36.6125 55.2368 41.6639 53.6808 42.8005C52.1249 43.9369 47.8468 40.728 44.7094 36.4328C41.5721 32.1377 40.7636 28.3826 42.3194 27.2461C43.8755 26.1096 47.2066 28.0221 50.344 32.3173Z" stroke="#020202" stroke-width="1.91406" stroke-miterlimit="10" stroke-linecap="round" stroke-linejoin="round"/>
<path d="M66.3489 33.6264C67.776 30.7565 67.9207 28.4784 66.7682 27.6368C65.2123 26.5002 61.8812 28.4128 58.7438 32.7079C55.6063 37.0031 53.851 42.0545 55.4069 43.1911C56.8784 44.2658 60.7845 41.4543 63.8579 37.5129" stroke="#020202" stroke-width="1.91406" stroke-miterlimit="10" stroke-linecap="round" stroke-linejoin="round"/>
<path d="M50.5507 45.3853C53.9987 47.9188 56.1321 51.1185 54.6739 52.0604C53.2156 53.0023 48.7181 51.3296 45.27 48.7961C41.8219 46.2626 40.7293 43.8276 42.1874 42.8858C43.6457 41.9438 47.1026 42.8518 50.5507 45.3853Z" stroke="#020202" stroke-width="1.91406" stroke-miterlimit="10" stroke-linecap="round" stroke-linejoin="round"/>
<path d="M59.6365 44.9294C56.3316 47.647 54.3757 50.9581 55.883 51.819C57.3903 52.68 61.7902 50.765 65.0952 48.0473C68.4 45.3299 69.3585 42.8389 67.8511 41.9779C66.3438 41.1168 62.9414 42.2117 59.6365 44.9294Z" stroke="#020202" stroke-width="1.91406" stroke-miterlimit="10" stroke-linecap="round" stroke-linejoin="round"/>
<path d="M50.2017 18.2211C53.1568 22.2668 54.8102 27.0247 53.3447 28.0951C51.8791 29.1656 47.8496 26.1433 44.8945 22.0976C41.9394 18.052 41.1779 14.5151 42.6435 13.4447C44.109 12.3741 47.2466 14.1755 50.2017 18.2211Z" stroke="#020202" stroke-width="1.91406" stroke-miterlimit="10" stroke-linecap="round" stroke-linejoin="round"/>
<path d="M58.5716 18.7465C55.6165 22.7921 53.9631 27.5501 55.4286 28.6205C56.8941 29.691 60.9235 26.6687 63.8786 22.623C66.8337 18.5774 67.5954 15.0404 66.1297 13.9699C64.6643 12.8995 61.5267 14.7008 58.5716 18.7465Z" stroke="#020202" stroke-width="1.91406" stroke-miterlimit="10" stroke-linecap="round" stroke-linejoin="round"/>
<path d="M58.4879 11.6996C58.0836 15.5172 56.3861 18.9241 54.755 18.7515C53.1242 18.5788 52.1776 14.8918 52.5819 11.0743C52.986 7.25667 54.5878 4.75411 56.2187 4.92682C57.8496 5.09954 58.892 7.88206 58.4879 11.6996Z" stroke="#020202" stroke-width="1.91406" stroke-miterlimit="10" stroke-linecap="round" stroke-linejoin="round"/>
<path d="M36.9955 54.3457C34.0029 54.3457 34.0029 56.8155 31.0103 56.8155C28.0174 56.8155 28.0174 54.3457 25.0244 54.3457C22.0315 54.3457 22.0315 56.8155 19.0385 56.8155C16.0456 56.8155 16.0456 54.3457 13.0525 54.3457C10.0598 54.3457 10.0598 56.8155 7.06701 56.8155C4.07421 56.8155 4.07421 54.3457 1.08154 54.3457V64.752H72.9136V54.3457C69.92 54.3457 69.92 56.8155 66.9266 56.8155C63.9331 56.8155 63.9331 54.3457 60.9397 54.3457C57.9466 54.3457 57.9466 56.8155 54.9537 56.8155C51.9606 56.8155 51.9606 54.3457 48.9675 54.3457C45.9744 54.3457 45.9744 56.8155 42.9814 56.8155C42.1776 56.8155 41.5895 56.6372 41.1015 56.3767" stroke="#020202" stroke-width="1.91406" stroke-miterlimit="10" stroke-linecap="round" stroke-linejoin="round"/>
<path d="M70.7456 69.0879H3.24951C2.05221 69.0879 1.08154 68.1172 1.08154 66.9199V64.752H72.9136V66.9199C72.9136 68.1172 71.9429 69.0879 70.7456 69.0879Z" stroke="#020202" stroke-width="1.91406" stroke-miterlimit="10" stroke-linecap="round" stroke-linejoin="round"/>
</g>
</g>
<defs>
<clipPath id="clip0_1130_2419">
<rect width="74" height="74" fill="white"/>
</clipPath>
</defs>
</svg>
