<svg width="74" height="75" viewBox="0 0 74 75" fill="none" xmlns="http://www.w3.org/2000/svg">
<g clip-path="url(#clip0_1130_2630)">
<path d="M15.0773 33.5098C13.2925 33.5098 11.8403 34.962 11.8403 36.7467V38.961C11.8403 40.7457 13.2925 42.198 15.0773 42.198H25.88C27.6649 42.198 29.117 40.7457 29.117 38.961V36.7467C29.117 34.962 27.6649 33.5098 25.88 33.5098H15.0773ZM26.9519 36.7469V38.9611C26.9519 39.5523 26.471 40.0331 25.8799 40.0331H15.0772C14.486 40.0331 14.0052 39.5523 14.0052 38.9611V36.7469C14.0052 36.1557 14.486 35.6749 15.0772 35.6749H25.8799C26.471 35.6747 26.9519 36.1556 26.9519 36.7469Z" fill="#020202"/>
<path d="M32.9423 33.5098C32.3443 33.5098 31.8599 33.9942 31.8599 34.5922C31.8599 35.1901 32.3443 35.6746 32.9423 35.6746H40.3936C40.9915 35.6746 41.476 35.1901 41.476 34.5922C41.476 33.9942 40.9915 33.5098 40.3936 33.5098H32.9423Z" fill="#020202"/>
<path d="M41.4753 25.1827V9.03971C41.4753 7.25501 40.0231 5.80273 38.2384 5.80273H15.0773C13.2926 5.80273 11.8403 7.25501 11.8403 9.03971V25.1827V27.8918C11.8403 29.6763 13.2923 31.1288 15.0773 31.1288C39.885 31.1288 38.3255 31.1369 38.5688 31.112C40.199 30.9459 41.4752 29.5651 41.4752 27.8918V25.1827H41.4753ZM38.2384 28.9638H15.0773C14.4862 28.9638 14.0053 28.4829 14.0053 27.8918V26.2651H17.5533C18.1512 26.2651 18.6357 25.7806 18.6357 25.1827C18.6357 24.5847 18.1512 24.1002 17.5533 24.1002H14.0052V9.03985C14.0052 8.44871 14.486 7.96785 15.0772 7.96785H38.2382C38.8294 7.96785 39.3102 8.44871 39.3102 9.03985V24.1004H21.3061C20.7082 24.1004 20.2237 24.5849 20.2237 25.1828C20.2237 25.7807 20.7082 26.2652 21.3061 26.2652H39.3104V27.8919C39.3104 28.4829 38.8295 28.9638 38.2384 28.9638Z" fill="#020202"/>
<path d="M70.7652 8.90613H69.5733V4.72203C69.5733 4.39567 69.4259 4.08681 69.1727 3.88128L64.744 0.290633C64.2795 -0.0858771 63.5977 -0.0147666 63.2215 0.44962C62.845 0.914006 62.9161 1.59563 63.3805 1.97214L67.4082 5.23801V8.90628H66.2167C64.432 8.90628 62.9797 10.3584 62.9797 12.1432V13.5037L59.5401 15.9777C59.2573 16.1811 59.0896 16.5083 59.0896 16.8565V23.724C59.0896 24.3219 59.5741 24.8064 60.172 24.8064C61.6726 24.8064 65.8737 24.8064 67.4082 24.8064C67.4082 25.0427 67.4082 48.3129 67.4082 49.0918C67.4082 53.4279 63.8802 56.9557 59.5434 56.9557C55.2067 56.9557 51.6786 53.4281 51.6786 49.0918V39.2926C51.6786 39.2502 51.6756 39.2087 51.6708 39.1675C51.6815 39.0034 51.6786 39.1522 51.6786 36.7405C51.6786 34.9558 50.2264 33.5036 48.4417 33.5036H47.4893V10.4709C47.4893 9.87292 47.0049 9.38844 46.4069 9.38844C45.809 9.38844 45.3245 9.87292 45.3245 10.4709V34.586C45.3245 36.1063 45.3245 65.9746 45.3245 67.2871H7.99064V3.2858C7.99064 2.69466 8.47151 2.2138 9.06265 2.2138H44.2525C44.8437 2.2138 45.3245 2.69466 45.3245 3.2858V7.00696C45.3245 7.6049 45.809 8.08937 46.4069 8.08937C47.0049 8.08937 47.4893 7.6049 47.4893 7.00696V3.2858C47.4893 1.50096 46.0371 0.0488281 44.2524 0.0488281H9.06265C7.27795 0.0488281 5.82568 1.50096 5.82568 3.2858V67.287H3.32756C1.49329 67.287 0.000976562 68.7796 0.000976562 70.614C0.000976562 72.4483 1.49329 73.9406 3.32756 73.9406H6.87268C7.47061 73.9406 7.95509 73.4561 7.95509 72.8582C7.95509 72.2602 7.47061 71.7758 6.87268 71.7758H3.32756C2.68699 71.7758 2.1658 71.2547 2.1658 70.614C2.1658 69.9733 2.68684 69.4519 3.32756 69.4519H6.90823H46.4072H50.1321C50.7727 69.4519 51.2939 69.9731 51.2939 70.614C51.2939 71.2546 50.7728 71.7758 50.1321 71.7758H10.6256C10.0277 71.7758 9.54322 72.2602 9.54322 72.8582C9.54322 73.4561 10.0277 73.9406 10.6256 73.9406H50.1321C51.9664 73.9406 53.4587 72.4483 53.4587 70.614C53.4587 68.7796 51.9664 67.2871 50.1321 67.2871H47.4896V42.1918C48.4881 42.1918 48.8826 42.2308 49.5138 42.0085V49.0915C49.5138 54.6214 54.0131 59.1203 59.5434 59.1203C65.0737 59.1203 69.573 54.6212 69.573 49.0915C69.573 48.3126 69.573 25.0423 69.573 24.8061H70.7649C72.5496 24.8061 74.0018 23.3538 74.0018 21.5691V12.1428C74.0021 10.3583 72.5499 8.90613 70.7652 8.90613ZM48.4418 40.0267H47.4895V35.6684H48.4418C49.033 35.6684 49.5138 36.1493 49.5138 36.7404V38.9547C49.514 39.5458 49.033 40.0267 48.4418 40.0267ZM61.2546 17.4109L62.9797 16.1701C62.9797 22.0033 62.9187 21.947 63.163 22.641H61.2546V17.4109ZM66.2167 22.6411C65.6255 22.6411 65.1447 22.1603 65.1447 21.5691V12.143C65.1447 11.5518 65.6255 11.071 66.2167 11.071H70.765C71.3562 11.071 71.837 11.5518 71.837 12.143V21.569C71.837 22.1601 71.3562 22.641 70.765 22.641H66.2167V22.6411Z" fill="#020202"/>
<path d="M24.4301 21.2883C24.4301 21.2883 25.3615 21.9002 26.6549 21.9022C30.0698 21.9022 32.1746 18.1175 30.3178 15.215L27.5682 10.9189C27.3692 10.608 27.0255 10.4199 26.6565 10.4199C26.2875 10.4199 25.9438 10.6081 25.7448 10.9189L22.9954 15.215C21.6454 17.3244 22.3598 20.0521 24.4301 21.2883ZM24.8189 16.3821L26.6563 13.5105L28.4941 16.3819C29.7817 18.3946 27.3017 20.7814 25.3221 19.2818C24.4646 18.6205 24.1839 17.3739 24.8189 16.3821Z" fill="#020202"/>
</g>
<defs>
<clipPath id="clip0_1130_2630">
<rect width="74.001" height="74.001" fill="white"/>
</clipPath>
</defs>
</svg>
